{"title":"Star Wars Episode 3 Revenge of the Sith 2005-1080p BluRay Hardco","uid":8599612,"size":8968454618,"categoryP":"video","categoryS":"hd___movies","magnet":"?xt=urn:btih:cec5e2d8a9d1f5cc39a82f6a67ce4860c48085b1&amp;dn=Star+Wars+Episode+3+Revenge+of+the+Sith+2005-1080p+BluRay+Hardco&amp;tr=udp%3A%2F%2Ftracker.openbittorrent.com%3A80&amp;tr=udp%3A%2F%2Fopen.demonii.com%3A1337&amp;tr=udp%3A%2F%2Ftracker.coppersurfer.tk%3A6969&amp;tr=udp%3A%2F%2Fexodus.desync.com%3A6969","seeders":2,"leechers":0,"uploader":"100.XY","files":-1,"time":1371850981,"description":"It is three years after the Clone Wars. The leader of the droid army, General Grievous, has captured Chancellor Palpatine on board his ship, the Invisible Hand. Jedi Master Obi-Wan Kenobi and Jedi Knight Anakin Skywalker must fly through Coruscant safely, and enter the Invisible Hand so that they can rescue the captive Chancellor. Just when Palpatine is about to be released, Count Dooku shows up. Obi-Wan and Anakin both battle it out with him, but Obi-Wan ends up unconscious. Anakin slices off his head and kills him. Anakin carries Obi-Wan, and Palpatine follows him. They meet General Grievous face to face, and Anakin tries to fly the last half of the ship so that they can safely land on Coruscant. Later, Palpatine starts acting strange, constantly manipulating Anakin into believing that the Jedi Council is against him. Eventually, it is found out that he is the Dark Lord of the Sith. Jedi Master Mace Windu fights him, along with three other Jedi that accompany Windu. They all fail. ...\n\n\n* * * MediaInspector for Mac - Version 2.0.1, build 900\n* * * Â©2012 by Diego Massanti\n* * * MediaInfo Lib by Jerome Martinez\n* * * Raw File Report for Star.Wars.Episode.3.Revenge.of.the.Sith.2005-1080p BluRay Hardcoded subs-PT [TUGA].mkv\n\nGeneral\nComplete name : /Volumes/My book 2/BluRay Movies/Star Wars Boxset BluRay /Star Wars Episode III - Revenge of the Sith/Star.Wars.Episode.3.Revenge.of.the.Sith.2005-1080p BluRay Hardcoded subs-PT [TUGA].mkv\nFormat : Matroska\nFile size : 8.35 GiB\nDuration : 2h 20mn\nOverall bit rate : 8 535 Kbps\nEncoded date : UTC 2013-06-17 10:35:13\nWriting library : WonderShare Matroska Muxer\n\nVideo\nID : 1\nFormat : AVC\nFormat/Info : Advanced Video Codec\nFormat profile : &lt;a class=&quot;__cf_email__&quot; href=&quot;/cdn-cgi/l/email-protection&quot; data-cfemail=&quot;b0f2d1c3d5dcd9ded5f0fc859e80&quot;&gt;[email&amp;#160;protected]&lt;/a&gt;&lt;script cf-hash='f9e31' type=&quot;text/javascript&quot;&gt;\n/* &lt;![CDATA[ */!function(){try{var t=&quot;currentScript&quot;in document?document.currentScript:function(){for(var t=document.getElementsByTagName(&quot;script&quot;),e=t.length;e--;)if(t[e].getAttribute(&quot;cf-hash&quot;))return t[e]}();if(t&amp;&amp;t.previousSibling){var e,r,n,i,c=t.previousSibling,a=c.getAttribute(&quot;data-cfemail&quot;);if(a){for(e=&quot;&quot;,r=parseInt(a.substr(0,2),16),n=2;a.length-n;n+=2)i=parseInt(a.substr(n,2),16)^r,e+=String.fromCharCode(i);e=document.createTextNode(e),c.parentNode.replaceChild(e,c)}}}catch(u){}}();/* ]]&gt; */&lt;/script&gt;\nFormat settings, CABAC : No\nFormat settings, ReFrames : 1 frame\nFormat settings, GOP : M=1, N=25\nCodec ID : V_MPEG4/ISO/AVC\nDuration : 2h 20mn\nBit rate : 8 206 Kbps\nWidth : 1 920 pixels\nHeight : 1 080 pixels\nDisplay aspect ratio : 16:9\nFrame rate : 23.976 fps\nOriginal frame rate : 23.000 fps\nColor space : YUV\nChroma subsampling : 4:2:0\nBit depth : 8 bits\nScan type : Progressive\nBits/(Pixel*Frame) : 0.165\nStream size : 8.03 GiB (96%)\n\nAudio\nID : 2\nFormat : AC-3\nFormat/Info : Audio Coding 3\nMode extension : CM (complete main)\nCodec ID : A_AC3\nDuration : 2h 20mn\nBit rate mode : Constant\nBit rate : 160 Kbps\nChannel(s) : 2 channels\nChannel positions : Front: L R\nSampling rate : 44.1 KHz\nBit depth : 16 bits\nCompression mode : Lossy\nDelay relative to video : 4ms\nStream size : 160 MiB (2%)","torrent":{"xt":"urn:btih:cec5e2d8a9d1f5cc39a82f6a67ce4860c48085b1","amp;dn":"Star+Wars+Episode+3+Revenge+of+the+Sith+2005-1080p+BluRay+Hardco","amp;tr":["udp%3A%2F%2Ftracker.openbittorrent.com%3A80","udp%3A%2F%2Fopen.demonii.com%3A1337","udp%3A%2F%2Ftracker.coppersurfer.tk%3A6969","udp%3A%2F%2Fexodus.desync.com%3A6969"],"infoHash":"cec5e2d8a9d1f5cc39a82f6a67ce4860c48085b1","infoHashBuffer":{"type":"Buffer","data":[206,197,226,216,169,209,245,204,57,168,47,106,103,206,72,96,196,128,133,177]},"announce":[],"urlList":[]}}